<?xml version="1.0" standalone="no"?>
<!DOCTYPE svg PUBLIC "-//W3C//DTD SVG 20010904//EN"
 "http://www.w3.org/TR/2001/REC-SVG-20010904/DTD/svg10.dtd">
<svg version="1.0" xmlns="http://www.w3.org/2000/svg"
 width="2048.000000pt" height="2048.000000pt" viewBox="0 0 2048.000000 2048.000000"
 preserveAspectRatio="xMidYMid meet">

<g transform="translate(0.000000,2048.000000) scale(0.100000,-0.100000)"
fill="#000000" stroke="none">
<path d="M0 10240 l0 -10240 10240 0 10240 0 0 10240 0 10240 -10240 0 -10240
0 0 -10240z m10587 3294 c87 -53 192 -119 234 -145 42 -27 80 -49 85 -49 5 0
8 59 6 134 l-3 135 115 3 116 3 0 -57 0 -58 -55 0 -55 0 0 -130 0 -131 30 -17
c17 -9 75 -45 128 -79 53 -34 117 -74 142 -89 25 -15 75 -47 112 -71 37 -24
69 -43 72 -43 14 0 95 -63 91 -70 -3 -5 0 -12 6 -16 8 -4 9 -3 5 4 -9 15 -3
15 29 0 l26 -12 -1 -235 -1 -236 278 0 278 0 3 456 2 456 -24 13 c-59 31 -32
114 38 116 30 1 39 -4 51 -25 17 -33 9 -79 -16 -86 -19 -6 -19 -22 -17 -468
l3 -462 617 -3 617 -2 26 26 c18 18 31 23 48 19 50 -15 61 -62 22 -100 -30
-31 -40 -31 -71 0 l-25 25 -915 -2 -915 -3 1 -592 c0 -472 -2 -593 -12 -594
-7 0 -125 0 -263 -1 -204 0 -250 2 -251 13 -1 8 -2 424 -3 924 l-2 910 -72 42
c-100 59 -280 171 -355 221 -35 23 -66 42 -68 42 -3 0 -50 30 -105 66 -55 36
-106 63 -114 60 -8 -3 -119 -76 -247 -162 -310 -210 -650 -436 -674 -450 -44
-25 -44 -22 -44 -795 0 -405 2 -738 4 -740 2 -2 40 -3 85 -1 l80 4 3 91 c3 84
5 92 23 92 19 0 20 -8 23 -160 l2 -160 -340 0 -340 -1 0 771 0 770 318 212
c315 210 364 240 347 213 -5 -9 -4 -11 4 -6 6 4 9 11 6 16 -5 9 37 40 175 130
41 27 185 123 320 214 135 91 248 165 252 165 5 1 79 -42 165 -95z m1463 -325
c9 -16 8 -24 -4 -38 -14 -15 -16 -50 -16 -222 l0 -204 25 -24 c33 -31 33 -75
1 -97 -33 -21 -65 -15 -89 17 -16 23 -17 30 -6 50 7 13 19 29 27 35 22 16 20
434 -2 446 -20 11 -20 22 0 42 22 22 51 20 64 -5z m474 -21 c23 -33 20 -64 -9
-87 l-26 -20 -2 -262 c-2 -200 -5 -263 -14 -266 -10 -4 -13 52 -13 258 l0 262
-25 23 c-14 13 -25 34 -25 49 0 57 82 89 114 43z m-3444 -243 c0 -12 -37 -15
-252 -17 l-253 -3 0 -485 c0 -525 -2 -506 52 -473 35 21 71 16 89 -12 19 -29
12 -57 -20 -74 -29 -16 -63 -7 -71 20 -6 18 -18 19 -356 19 -304 0 -349 2
-349 15 0 13 41 15 305 15 283 0 305 1 306 18 1 9 2 108 4 220 3 190 2 203
-16 213 -11 6 -97 9 -208 9 -151 -1 -192 -4 -202 -16 -6 -8 -24 -14 -40 -14
-39 0 -51 42 -21 72 20 20 22 21 47 4 24 -16 53 -18 227 -17 110 1 204 4 210
7 6 4 7 101 4 260 l-6 254 275 0 c236 0 275 -2 275 -15z m4026 -207 c29 -28
30 -36 2 -65 -26 -28 -64 -30 -80 -3 -12 19 -24 20 -165 20 -140 0 -152 -1
-158 -19 -12 -39 -71 -31 -94 13 -13 23 -12 28 4 46 24 27 80 27 97 0 12 -18
24 -20 154 -20 140 0 142 0 158 25 20 31 51 32 82 3z m-2706 -273 l0 -85 -90
0 -90 0 0 78 c0 43 3 82 7 85 3 4 44 7 90 7 l83 0 0 -85z m218 -2 l3 -83 -86
0 -85 0 0 78 c0 43 3 82 7 86 4 4 41 5 83 4 l75 -3 3 -82z m-3192 -1 c5 -4 18
-18 27 -32 16 -23 16 -25 -10 -52 -15 -15 -32 -28 -38 -28 -19 0 -55 40 -55
60 0 20 36 60 54 60 6 0 16 -4 22 -8z m2974 -202 l0 -80 -90 0 -90 0 0 73 c0
41 3 77 7 80 3 4 44 7 90 7 l83 0 0 -80z m218 -3 l3 -78 -83 3 -83 3 -3 64
c-4 94 -5 93 85 89 l78 -3 3 -78z m3348 -23 c6 -24 -11 -64 -27 -64 -7 0 -10
-171 -9 -522 1 -288 1 -529 1 -535 -1 -10 -202 -13 -971 -13 l-969 0 -3 148
-3 147 -42 3 c-29 2 -43 8 -43 18 0 11 14 14 60 14 l59 0 3 -152 3 -152 682
-4 681 -4 4 68 c1 38 2 191 0 341 -3 254 -4 272 -22 278 -10 3 -21 17 -24 30
l-6 25 -770 0 c-678 0 -770 2 -770 15 0 13 92 15 770 15 757 0 770 0 790 20
24 24 67 26 92 3 27 -24 24 -77 -7 -101 l-25 -20 2 -334 3 -333 240 0 240 0 3
521 c2 510 2 521 -18 539 -25 23 -25 50 0 75 17 17 24 18 45 8 14 -6 28 -21
31 -34z m-6105 -64 c151 0 179 -2 179 -15 0 -12 -24 -15 -132 -17 l-133 -3 -5
-475 -5 -475 28 -18 c24 -15 28 -23 25 -54 -6 -71 -99 -86 -122 -20 -12 33 -1
57 33 72 15 7 20 16 17 30 -3 11 -6 147 -6 303 l0 283 -202 -2 c-180 -1 -203
0 -206 15 -3 14 18 16 202 16 l206 0 0 165 0 165 -30 0 c-16 0 -30 -4 -30 -10
0 -16 -40 -12 -46 5 -8 20 15 47 33 40 8 -3 95 -5 194 -5z m4829 -35 c15 -18
7 -43 -16 -52 -11 -4 -23 1 -33 13 -15 18 -32 19 -378 16 -244 -2 -363 1 -363
8 0 7 121 10 364 10 233 0 367 4 371 10 9 15 41 12 55 -5z m-2020 -610 l0
-375 -34 0 c-18 0 -48 -3 -65 -6 l-31 -6 0 311 0 311 -130 0 -130 0 -2 -307
-3 -308 -24 -3 c-13 -2 -44 -1 -68 3 l-43 6 0 369 c0 285 3 369 13 373 6 3
126 6 265 6 l252 1 0 -375z m-1950 190 c0 -12 -27 -15 -157 -17 l-158 -3 2
-187 2 -188 -118 0 c-105 0 -120 -2 -136 -20 -34 -38 -105 -15 -105 34 0 58
67 88 105 46 16 -17 31 -20 117 -20 l98 0 0 185 0 185 175 0 c148 0 175 -2
175 -15z m-1442 -11 c40 -28 19 -94 -31 -94 -32 0 -57 24 -57 55 0 48 46 69
88 39z m5857 -68 c11 -17 13 -30 6 -48 -17 -45 -72 -52 -97 -13 l-17 25 -613
-2 c-540 -3 -614 -1 -614 12 0 13 73 15 613 12 607 -3 613 -3 632 18 25 28 70
26 90 -4z m-668 -252 c25 -25 29 -26 152 -25 99 1 127 5 134 16 11 20 44 19
55 -1 8 -14 33 -16 197 -15 148 2 186 -1 183 -11 -3 -9 -44 -12 -179 -9 -168
3 -175 2 -203 -20 l-29 -23 -18 23 c-18 22 -24 23 -144 19 -117 -3 -127 -5
-143 -25 -18 -25 -51 -29 -83 -13 -40 22 -14 110 33 110 10 0 31 -12 45 -26z
m-3702 -254 c16 -18 31 -20 132 -20 73 0 113 4 113 11 0 5 5 7 10 4 6 -3 10
-13 10 -21 0 -11 -22 -14 -121 -14 -117 0 -122 -1 -141 -25 -11 -14 -27 -25
-37 -25 -28 0 -61 30 -61 55 0 25 33 55 61 55 9 0 24 -9 34 -20z m3509 -159
c21 -23 15 -51 -14 -69 -17 -10 -26 -10 -48 0 -33 16 -39 43 -16 69 22 24 56
24 78 0z m-5804 -586 l0 -85 -167 -2 -168 -3 -3 -432 -2 -433 -90 0 -90 0 0
429 0 428 -46 7 c-26 3 -98 6 -160 6 l-114 0 0 85 0 85 420 0 420 0 0 -85z
m900 0 l0 -85 -157 -1 c-87 -1 -210 -2 -273 -4 l-115 -3 -3 -131 -3 -131 256
0 255 0 0 -85 0 -85 -255 0 -255 0 0 -130 0 -130 280 0 280 0 0 -85 0 -85
-367 0 -368 0 -1 514 c-2 469 0 515 15 519 9 2 172 5 364 6 l347 1 0 -85z
m4702 1 l3 -85 -33 -6 c-18 -3 -94 -5 -170 -4 l-137 1 -3 -431 -2 -431 -90 0
-90 0 0 429 0 429 -160 4 c-87 2 -160 6 -162 8 -2 3 -2 42 0 88 l4 82 418 0
419 0 3 -84z m888 -6 l0 -90 -275 0 -275 0 0 -130 0 -130 245 0 245 0 0 -85 0
-85 -245 0 -246 0 3 -127 3 -128 278 -3 277 -2 0 -85 0 -85 -365 0 -365 0 0
514 c0 402 3 515 13 519 6 3 168 6 360 6 l347 1 0 -90z m801 74 c67 -20 173
-74 221 -114 l37 -31 -47 -41 c-100 -90 -86 -84 -124 -54 -112 85 -260 107
-368 54 -120 -59 -190 -165 -198 -299 -6 -96 7 -146 56 -219 72 -107 215 -173
329 -151 66 13 111 32 167 70 25 17 49 31 54 31 17 0 122 -90 122 -104 0 -23
-79 -87 -145 -117 -221 -104 -476 -57 -634 117 -94 103 -135 214 -134 364 0
109 23 190 77 274 63 99 188 190 306 222 65 18 216 17 281 -2z m-5908 -109
c97 -120 323 -409 402 -514 l50 -66 3 348 2 347 90 0 90 0 0 -515 0 -515 -75
0 -75 0 -93 117 c-50 65 -137 174 -192 244 -55 69 -140 177 -190 240 l-90 114
-5 -355 -5 -355 -87 -3 -88 -3 0 516 0 516 88 -3 87 -3 88 -110z m1891 78 c10
-21 67 -150 127 -288 114 -260 153 -347 213 -478 20 -44 36 -81 36 -83 0 -2
14 -32 30 -66 17 -34 30 -65 30 -70 0 -4 -44 -8 -97 -8 l-98 0 -45 111 c-34
83 -51 113 -68 120 -27 10 -364 11 -431 1 l-44 -7 -48 -110 -48 -110 -95 -3
c-53 -1 -96 0 -96 4 0 3 18 45 41 93 39 82 140 314 306 701 110 257 89 230
186 230 l83 0 18 -37z m776 -478 l0 -515 -90 0 -90 0 0 515 0 515 90 0 90 0 0
-515z m3862 503 c0 -7 2 -56 2 -108 1 -52 2 -144 4 -205 l2 -110 266 3 265 3
-5 172 c-2 95 -2 191 1 215 l6 42 88 0 89 0 0 -515 0 -515 -90 0 -90 0 0 215
0 215 -265 0 -265 0 -2 -212 -3 -213 -92 -3 -93 -3 0 516 0 515 90 0 c65 0 90
-4 92 -12z"/>
<path d="M11230 12161 c0 -417 3 -786 6 -820 l7 -62 56 3 56 3 3 781 2 781
-55 37 c-30 20 -59 36 -65 36 -7 0 -10 -252 -10 -759z"/>
<path d="M11447 12787 c-3 -8 -4 -349 -4 -758 l2 -744 55 0 55 0 3 727 2 727
-44 30 c-49 34 -61 37 -69 18z"/>
<path d="M9281 12676 c-7 -8 -41 -33 -77 -56 l-64 -42 0 -649 0 -649 88 0 87
0 0 702 c0 501 -3 702 -11 705 -6 2 -16 -3 -23 -11z"/>
<path d="M9634 10216 c-4 -9 -41 -99 -84 -199 l-77 -182 170 -3 c93 -1 172 0
175 3 3 2 0 10 -5 17 -6 7 -43 92 -83 188 -40 96 -76 179 -81 184 -5 6 -11 2
-15 -8z"/>
</g>
</svg>
